<?xml version="1.0" encoding="utf-8"?>
<!-- Generator: Adobe Illustrator 16.0.0, SVG Export Plug-In . SVG Version: 6.00 Build 0)  -->
<!DOCTYPE svg PUBLIC "-//W3C//DTD SVG 1.1//EN" "http://www.w3.org/Graphics/SVG/1.1/DTD/svg11.dtd">
<svg version="1.1" id="Слой_1" xmlns="http://www.w3.org/2000/svg" xmlns:xlink="http://www.w3.org/1999/xlink" x="0px" y="0px"
	 width="201.26px" height="42.52px" viewBox="0 0 201.26 42.52" enable-background="new 0 0 201.26 42.52" xml:space="preserve">
<path fill="#818181" d="M108.028,25.969c-1.498-2.753-4.332-4.444-7.601-4.444c-4.93,0-8.825,3.756-8.825,9.375
	c0,5.535,3.895,9.349,8.825,9.349c3.46,0,6.429-1.95,7.9-5.019l1.035,0.315c-1.607,3.556-4.957,5.791-8.937,5.791
	c-5.475,0-9.888-4.386-9.888-10.438c0-6.051,4.413-10.437,9.888-10.437c3.732,0,6.947,2.035,8.663,5.218L108.028,25.969z"/>
<path fill="#818181" d="M124.539,34.629h-10.488l-2.669,6.307h-1.117l8.582-20.069h0.897l8.58,20.069h-1.116L124.539,34.629z
	 M124.104,33.624l-3.924-9.262c-0.408-0.975-0.845-2.18-0.871-2.18h-0.027c-0.027,0-0.463,1.205-0.871,2.18l-3.924,9.262H124.104z"
	/>
<path fill="#818181" d="M137.233,20.865c4.306,0,6.894,2.322,6.894,6.165s-2.588,6.164-6.894,6.164h-4.086v7.741h-1.035v-20.07
	H137.233z M137.233,32.162c3.787,0,5.83-1.979,5.83-5.133c0-3.325-2.262-5.104-5.83-5.104h-4.086v10.236H137.233z"/>
<rect x="148.515" y="20.865" fill="#818181" width="1.034" height="20.07"/>
<polygon fill="#818181" points="167.476,20.865 167.476,21.926 160.801,21.926 160.801,40.936 159.737,40.936 159.737,21.926 
	153.063,21.926 153.063,20.865 "/>
<path fill="#818181" d="M181.231,34.629h-10.487l-2.669,6.307h-1.116l8.58-20.069h0.897l8.582,20.069h-1.117L181.231,34.629z
	 M180.797,33.624l-3.924-9.262c-0.408-0.975-0.845-2.18-0.871-2.18h-0.026c-0.027,0-0.463,1.205-0.871,2.18l-3.924,9.262H180.797z"
	/>
<polygon fill="#818181" points="200.819,39.875 200.819,40.936 188.944,40.936 188.944,20.865 189.979,20.865 189.979,39.875 "/>
<path fill="#333333" d="M0.82,19.357h8.554c4.62,0,7.814,2.139,7.814,7.072c0,5.076-2.738,7.3-7.613,7.3H6.41v7.129H0.82V19.357z
	 M6.41,29.224h0.941c2.024,0,4.021,0,4.021-2.624c0-2.709-1.853-2.736-4.021-2.736H6.41V29.224z"/>
<polygon fill="#333333" points="24.69,24.091 24.69,27.684 30.993,27.684 30.993,32.416 24.69,32.416 24.69,36.123 31.335,36.123 
	31.335,40.857 19.101,40.857 19.101,19.356 31.335,19.356 31.335,24.091 "/>
<path fill="#333333" d="M39.634,37.122l-1.483,3.735H32.22l8.27-21.502h6.102l8.099,21.502h-5.96l-1.397-3.735H39.634z
	 M43.542,26.001h-0.057l-2.31,6.845h4.648L43.542,26.001z"/>
<path fill="#333333" d="M73.457,40.857h-6.958l-5.276-8.27h-0.057v8.27h-5.589v-21.5h8.355c4.249,0,7.472,2.024,7.472,6.616
	c0,2.965-1.654,5.532-4.706,6.074L73.457,40.857z M61.166,28.995h0.542c1.825,0,3.878-0.344,3.878-2.682s-2.053-2.68-3.878-2.68
	h-0.542V28.995z"/>
<polygon fill="#333333" points="80,21.875 75,26.185 75,40.074 87,40.074 87,35.074 80,35.074 "/>
<g>
	<g>
		<defs>
			<path id="SVGID_1_" d="M91.297,2.791c-1.301,1.062-3.785,2.002-4.404,2.243C86.55,5.167,72.356,9.449,72.356,9.449l11.371,0.111
				l-9.774,14.065l16.449-13.351l-4.052,1.192c0,0,5.505-4.607,5.862-4.927c0.556-0.497,1.765-1.686,2.881-2.763
				c0.188-0.182,0.43-0.315,0.657-0.332c0.795-0.056,1.667,0.731,1.667,0.731s-1.236-2.284-3.111-2.635
				c-0.123-0.023-0.249-0.035-0.378-0.035C93.132,1.508,92.227,1.946,91.297,2.791"/>
		</defs>
		<clipPath id="SVGID_2_">
			<use xlink:href="#SVGID_1_"  overflow="visible"/>
		</clipPath>
		
			<linearGradient id="SVGID_3_" gradientUnits="userSpaceOnUse" x1="-537.0771" y1="-345.2249" x2="-536.0771" y2="-345.2249" gradientTransform="matrix(25.0613 0 0 25.0613 13532.1992 8664.3467)">
			<stop  offset="0" style="stop-color:#27296A"/>
			<stop  offset="1" style="stop-color:#1A92CF"/>
		</linearGradient>
		<rect x="72.356" y="1.508" clip-path="url(#SVGID_2_)" fill="url(#SVGID_3_)" width="25.061" height="22.119"/>
	</g>
</g>
<rect id="_x3C_Фрагмент_x3E_" y="1" fill="none" width="201" height="41"/>
</svg>
